<?xml version="1.0" encoding="UTF-8"?>
<svg width="220px" height="35px" viewBox="0 0 220 35" version="1.1" xmlns="http://www.w3.org/2000/svg" xmlns:xlink="http://www.w3.org/1999/xlink">
    <!-- Generator: Sketch 49.3 (51167) - http://www.bohemiancoding.com/sketch -->
    <title>nbc-sports-Logo@svg</title>
    <desc>Created with Sketch.</desc>
    <defs></defs>
    <g id="Asset-Sheet" stroke="none" stroke-width="1" fill="none" fill-rule="evenodd">
        <g id="nbc-sports-Logo" fill-rule="nonzero">
            <path d="M22.5269461,3.95044436 C23.1539333,2.90584359 24.0881795,2.07039614 25.2077844,1.55311108 C27.1673067,0.738013648 29.4277154,1.05856376 31.0700599,2.38444439 C32.5640269,3.63660385 33.2725004,5.56667213 32.9341317,7.4626665 C33.3113559,7.34517946 33.6809044,7.20529009 34.0407186,7.04377762 C36.3087111,6.37042623 38.7646675,7.1619289 40.1796407,9.02222202 C41.28871,10.4987546 41.5612105,12.4231949 40.9041916,14.1391108 C40.5554907,14.9921873 40.0046387,15.752011 39.297006,16.3559996 L39.3760479,16.4204441 C41.5903334,16.6107651 43.4849555,18.0533473 44.2173653,20.1066662 C44.8748508,22.068474 44.3301085,24.2253643 42.8143713,25.6617772 C41.5989625,26.7741382 39.9616134,27.3354074 38.3023952,27.2084438 L6.75808383,27.2084438 C4.33944779,27.3913108 2.06616365,26.0609573 1.08682635,23.889555 C0.223164773,21.8824112 0.67785648,19.5640395 2.23952096,18.0122218 C3.20628003,17.0790498 4.4712107,16.4989306 5.82275449,16.3688885 C4.2799398,15.0530835 3.58033435,13.0267194 3.99161677,11.0651109 C4.39768511,9.3100833 5.66174029,7.86361413 7.37065868,7.19844429 C8.91956714,6.62729802 10.644698,6.73528223 12.1065868,7.49488872 L12.1592814,7.44333317 C11.7603461,5.27677115 12.7555187,3.09178435 14.6688623,1.93333329 C16.5342608,0.811487099 18.8951717,0.849189118 20.7221557,2.02999996 C21.4640899,2.53413691 22.0808569,3.19483202 22.5269461,3.96333325" id="Shape" fill="#FFFFFF"></path>
            <g id="Group" transform="translate(1.317365, 1.933333)">
                <path d="M30.1347305,2.85488883 C30.7934132,4.1888888 30.4179641,5.94177765 29.7065868,7.14044429 L24.2329341,19.1915551 L24.1868263,19.2431107 L22.2107784,6.99866651 C22.0526946,5.82577765 23.3437126,5.32955544 24.0946108,4.76244434 C24.0083019,4.63599925 23.8675057,4.55524763 23.7125749,4.54333323 L21.8814371,4.51111101 L21.8287425,4.45311101 C21.8344124,2.92038268 22.7030629,1.51548964 24.088024,0.799111094 C25.6538984,-0.00236171022 27.5579395,0.190525361 28.9227545,1.28888886 C29.4400109,1.72203497 29.8537452,2.26102294 30.1347305,2.86777771" id="Shape" fill="#645FAA"></path>
                <path d="M20.0568862,2.4295555 C20.5373738,3.25583759 20.7293144,4.21289573 20.6035928,5.15555544 L18.3706587,19.1722218 L17.7844311,18.0895552 L12.1856287,5.84511098 C11.6773134,4.2744635 12.144846,2.55792306 13.3846171,1.44303875 C14.6243882,0.328154443 16.411965,0.0167512285 17.9688623,0.64444443 C18.8309835,1.00722001 19.5594303,1.61874858 20.0568862,2.39733328" id="Shape" fill="#C9234A"></path>
                <path d="M38.2035928,8.3197776 C38.914015,9.70028231 38.8160424,11.3470189 37.9467066,12.6375553 C37.4263473,13.4624441 36.5700599,13.8684441 35.8520958,14.403333 L24.2922156,22.1817773 L24.3712575,21.814444 L30.5167665,8.28111093 C31.4177422,6.7045537 33.2230721,5.83937205 35.048503,6.1093332 C36.3868793,6.34342848 37.5460067,7.15550891 38.2035928,8.3197776" id="Shape" fill="#0089CF"></path>
                <path d="M11.908982,8.25533315 L18.2982036,22.1882217 L18.1928144,22.1882217 L5.30239521,13.5011108 C3.99977678,12.453765 3.45209004,10.7527008 3.90598802,9.1639998 C4.28844289,7.87232209 5.26167519,6.82728837 6.54071856,6.33488875 C8.58018864,5.59494337 10.8669228,6.41446854 11.9353293,8.26822204" id="Shape" fill="#F37021"></path>
                <path d="M41.5892216,18.160444 C42.2027593,19.5758631 41.9994719,21.2038398 41.0556886,22.4331106 C40.20634,23.5037447 38.8832091,24.1102559 37.4988024,24.063555 L23.7586826,24.063555 L35.2658683,16.2399996 C36.3504203,15.6000578 37.6632065,15.4453135 38.872075,15.814919 C40.0809435,16.1845244 41.0700805,17.0430701 41.5892216,18.1733329" id="Shape" fill="#0DB14B"></path>
                <path d="M0.908982036,18.160444 C0.289390771,19.574153 0.490420069,21.2041701 1.43592814,22.4331106 C2.28804109,23.503926 3.61314936,24.1102208 4.9994012,24.063555 L18.7461078,24.063555 L7.24550898,16.2399996 C6.16298524,15.6003489 4.85200351,15.445796 3.64516351,15.8155515 C2.43832352,16.1853071 1.45160068,17.0438381 0.935329341,18.1733329" id="Shape" fill="#FDB913"></path>
            </g>
            <path d="M87.3808383,25.9582217 L74.1281437,25.9582217 L74.1281437,1.93333329 L87.0646707,1.93333329 C92.7556886,1.93333329 96.2862275,4.37577768 96.2862275,8.1457776 L96.2862275,8.21666649 C96.2862275,10.9233331 94.6197605,12.4377775 92.6305389,13.3722219 C95.851497,14.4355552 97.8341317,16.0531108 97.8341317,19.2753329 L97.8341317,19.3462218 C97.8341317,23.7348884 93.6976048,25.9259994 87.4071856,25.9259994 L87.3808383,25.9582217 Z M90.1736527,9.02222202 C90.1736527,7.44977761 88.7377246,6.55399986 86.1491018,6.55399986 L80.0958084,6.55399986 L80.0958084,11.632222 L85.7473054,11.632222 C88.454491,11.632222 90.1670659,10.878222 90.1670659,9.09955536 L90.1670659,9.02222202 L90.1736527,9.02222202 Z M91.7215569,18.6308885 C91.7215569,17.0197774 90.3317365,16.0531108 87.1898204,16.0531108 L80.0958084,16.0531108 L80.0958084,21.3375551 L87.3808383,21.3375551 C90.0946108,21.3375551 91.7215569,20.5191107 91.7215569,18.7597774 L91.7215569,18.6566663 L91.7215569,18.6308885 Z" id="Shape" fill="#FFFFFF"></path>
            <path d="M112.259281,26.3706661 C104.058683,26.3706661 97.9592814,20.9251107 97.9592814,14.0231108 L97.9592814,13.9586664 C97.9592814,7.1275554 103.94012,1.5273333 112.48982,1.5273333 C117.759281,1.5273333 120.894611,3.04177771 123.496407,5.23933322 L119.583832,9.1059998 C117.436527,7.42399984 115.249701,6.3864443 112.463473,6.3864443 C107.760479,6.3864443 104.37485,9.75044423 104.37485,13.8748886 L104.37485,13.939333 C104.37485,18.0508885 107.668263,21.4922218 112.463473,21.4922218 C115.64491,21.4922218 117.601198,20.3902218 119.781437,18.6631107 L123.680838,22.0657773 C120.822156,24.7144439 117.627545,26.3577772 112.259281,26.3577772" id="Shape" fill="#FFFFFF"></path>
            <polygon id="Shape" fill="#FFFFFF" points="53.6760479 19.4751107 53.6760479 10.6913331 67.1724551 25.9582217 72.3826347 25.9582217 72.3826347 1.93977774 66.3359281 1.93977774 66.3359281 16.7362219 53.2742515 1.93977774 47.6227545 1.93977774 47.6227545 20.7059995 47.6227545 23.6639995 47.6227545 25.9582217 53.6760479 25.9582217 53.6760479 23.1033328"></polygon>
            <path d="M163.722156,12.7277775 C162.608982,11.8835553 161.034731,12.5537775 161.034731,12.5537775 C157.98503,13.4946664 154.691617,15.8726663 152.096407,18.102444 C153.288623,16.7619996 154.638922,15.3184441 156.18024,13.765333 C156.18024,13.765333 157.28024,13.2111108 156.437126,12.3991108 C155.594012,11.5871109 154.592814,10.820222 154.592814,10.820222 C154.440981,10.6578708 154.214972,10.5825429 153.993413,10.6204442 C153.879306,10.7929982 153.879306,11.0150013 153.993413,11.1875553 C153.852336,11.4343255 153.684502,11.6655108 153.492814,11.8771109 L153.407186,11.9737775 C152.395023,12.7311492 151.288296,13.3591754 150.113772,13.8426664 C148.368263,14.4871108 146.161677,15.2088886 143.731138,16.0466663 C143.58156,15.9003316 143.41588,15.7706524 143.237126,15.6599997 C140.358683,13.9071108 131.776048,13.7266664 128.476048,13.5139997 C124.919162,13.2497775 124.115569,13.0306664 123.983832,12.4506664 C123.805988,11.6966664 124.932335,10.6333331 126.539521,9.49266646 C132.770659,5.03955545 141.373054,4.14377769 144.159281,4.18244435 C147.208982,4.22755546 148.065269,4.5819999 148.111377,4.82688878 C148.139347,4.96073135 148.105611,5.09983176 148.019162,5.207111 C147.455228,5.74705904 146.816672,6.2069467 146.122156,6.57333319 C144.256247,7.71720887 142.310543,8.73148109 140.299401,9.60866646 C139.640719,10.2144442 140.918563,10.3691109 140.918563,10.3691109 C142.660846,10.2897466 144.377314,9.92599326 145.997006,9.29288869 C149.290419,8.05555538 150.113772,6.94066651 150.199401,6.27044431 C150.261994,5.51276886 150.1702,4.75047446 149.929341,4.02777769 C149.079641,0.496222211 143.342515,0.64444443 143.342515,0.64444443 C136.568023,0.729018463 129.985027,2.85566362 124.491018,6.7344443 C121.138323,9.13822202 121.632335,10.8653331 121.632335,10.8653331 C121.632335,10.8653331 121.579641,14.2035552 124.17485,15.0091108 C125.312619,15.374695 126.491467,15.6040698 127.685629,15.6922219 C130.979042,16.0079996 133.455689,16.0531108 136.907186,16.2851108 C138.380304,16.3580803 139.843914,16.5586427 141.280838,16.8844441 C138.479939,17.8731289 135.733866,19.0046033 133.053892,20.2742218 C130.853892,21.350444 127.553892,23.1613328 126.381437,24.6048883 C124.965269,26.3448883 126.289222,27.7175549 126.117964,27.4211105 C126.328743,27.8013327 127.211377,29.3544438 130.979042,28.8839994 C132.962787,28.5499091 134.872554,27.8827488 136.623952,26.9119994 C138.521481,25.8992874 140.271613,24.6421551 141.827545,23.1742217 C143.968263,21.1635551 144.567665,19.6039996 144.574251,18.2506663 C144.578001,17.8097419 144.495269,17.3722069 144.330539,16.9617774 C146.905988,16.0917774 149.158683,15.4279997 150.653892,15.0284441 C146.464671,19.9648885 139.383832,29.3995549 142.519162,33.7173326 C142.663141,33.9449664 142.826175,34.1605206 143.006587,34.361777 C143.006587,34.361777 143.553293,34.8064437 143.770659,34.5293326 C143.988024,34.2522215 143.349102,33.9622215 143.349102,33.9622215 C143.118599,33.6301079 143.042059,33.2182408 143.138323,32.8279993 C143.276828,31.8724403 143.528832,30.9359588 143.889222,30.0375549 L144.758683,28.1042216 C146.1811,25.7370571 147.905298,23.5563949 149.88982,21.6146662 C155.449102,16.2915552 160.349701,14.0811108 161.377246,13.765333 C162.108383,13.533333 162.431138,13.5977775 162.549701,13.707333 C163.247904,14.3517775 161.495808,17.0906663 161.495808,17.0906663 L161.41018,17.2195552 C158.241916,21.7306662 156.391018,23.0195551 154.737725,23.6124439 C154.060723,23.8642739 153.302989,23.797742 152.682635,23.4319995 C152.337846,23.1475466 152.126207,22.7380715 152.096407,22.2977773 C152.162275,21.8208884 151.94491,21.8337773 151.94491,21.8337773 C151.161078,22.0979995 151.589222,23.4577773 151.589222,23.4577773 C152.182036,26.035555 155.831138,26.6799994 159.295808,24.1537772 C163.906587,20.7962218 164.795808,18.1088885 165.447904,16.4719996 C166.1,14.8351108 164.85509,13.5784441 163.735329,12.7277775 M142.473054,18.4826663 C141.320359,20.4159996 137.420958,22.7875551 136.116766,23.5093328 C134.699855,24.3231538 133.214643,25.0173687 131.677246,25.5844439 C129.411377,26.383555 127.395808,26.7573327 127.217964,26.2288883 C127.138922,26.0033328 126.994012,25.9002217 127.718563,25.1462217 C128.581437,24.2568884 131.216168,22.6006662 133.646707,21.3697773 C136.535436,19.9437335 139.509276,18.6890946 142.552096,17.6126663 C142.694329,17.8978662 142.666563,18.2362125 142.479641,18.4955552" id="Shape" fill="#FDB913"></path>
            <path d="M216.113772,18.6308885 C214.717365,19.9197773 210.798204,23.3611106 208.249102,24.6951106 C208.793804,23.941487 209.166686,23.0821772 209.342515,22.1753328 C209.566467,21.3053329 209.948503,18.9531107 210.350299,17.2066663 C210.508643,16.5437801 210.729138,15.8965947 211.008982,15.273333 C211.391018,14.4355552 211.931138,14.5064441 212.049701,14.2551108 C212.134774,14.0389294 212.062028,13.7937766 211.871856,13.6557775 C211.670197,13.4241343 211.449935,13.2086332 211.213174,13.011333 C210.912124,12.7263747 210.553004,12.5067762 210.159281,12.3668886 C209.948718,12.317941 209.726811,12.3627791 209.553293,12.4893331 C209.22075,12.7604058 208.943622,13.0905813 208.736527,13.4624441 C206.826347,15.4666663 200.549102,22.0271106 196.722156,24.2504439 C196.926347,24.1279995 193.613174,26.3191105 194.317964,23.4642217 C194.640719,22.1753328 195.971257,19.2688885 199.705988,14.693333 L201.642515,12.5731108 C203.243114,12.3539997 204.896407,12.1026664 206.556287,11.8384442 C206.556287,11.8384442 221.146108,10.0726664 217.200599,13.127333 C217.200599,13.127333 217.444311,13.6042219 218.056886,13.127333 C219.321557,12.1413331 219.802395,11.284222 219.72994,10.8331109 C219.479641,9.35733313 217.187425,9.01577758 213.143114,9.32511091 C211.022156,9.49266646 207.010778,10.0468887 203.420958,10.6139998 L206.958084,6.74733319 C207.163732,6.64330744 207.292885,6.43572556 207.292885,6.20922209 C207.292885,5.98271861 207.163732,5.77513673 206.958084,5.67111099 C206.442167,5.28871121 205.89087,4.95429572 205.311377,4.67222212 C205.311377,4.67222212 204.962275,4.34355546 204.343114,4.89777767 C202.282028,6.93717087 200.340218,9.08873966 198.526946,11.342222 C194.976647,11.7997775 190.899401,12.0897775 189.845509,12.212222 C189.578025,12.2714527 189.299419,12.1764236 189.127545,11.9673331 C189.127545,11.9673331 188.666467,11.6515553 188.771856,12.3991108 C188.771856,12.3991108 188.877246,14.3968886 190.846707,14.0359997 C191.966467,13.823333 194.225749,13.533333 197.064671,13.1659997 C196.577246,13.7717775 195.852695,14.6868886 195.088623,15.7437774 C191.558084,19.5137773 185.570659,25.571555 184.233533,24.7659995 C184.028245,24.5050815 183.992479,24.1526521 184.141317,23.8573328 C184.444311,22.8906662 185.583832,21.1506662 187.862874,18.5342218 C187.862874,18.5342218 188.916766,17.3097774 188.870659,16.7684441 C188.80479,15.9435552 188.337126,15.9628885 188.337126,15.9628885 C188.337126,15.9628885 185.294012,15.0799997 184.286228,14.1971108 C184.714371,13.5526664 185.48503,12.1091108 184.497006,11.4388886 C184.497006,11.4388886 183.212575,10.646222 182.283832,12.5215553 C181.88537,13.2008736 181.945194,14.0482849 182.435329,14.6675552 C181.776647,15.3764441 179.800599,17.245333 177.91018,17.7673329 C177.881511,17.2274594 177.570265,16.7402303 177.086826,16.4784441 C177.086826,16.4784441 176.039521,15.9564441 175.45988,16.607333 C174.88024,17.2582218 175.394012,17.8962218 175.973653,18.334444 C175.612464,19.113152 175.171059,19.8537973 174.656287,20.5448884 C173.75409,21.9709557 172.558494,23.1977681 171.145509,24.1473328 C170.618563,24.4953328 168.510778,25.6939994 167.931138,24.0506661 C167.628144,23.1419995 168.135329,21.3891106 169.452695,19.3977774 C172.153293,15.2862219 175.927545,13.9328886 176.95509,14.5708886 C177.225479,14.82369 177.306889,15.2142361 177.159281,15.5504441 C177.159281,15.5504441 177.047305,15.8339997 177.435928,15.8726663 C177.799709,15.8726663 178.094611,15.5841387 178.094611,15.2282219 C178.252695,14.3582219 177.435928,13.3657775 176.526946,12.6504442 C176.225241,12.4396816 175.903142,12.2583697 175.565269,12.1091108 C174.277429,11.803007 172.918811,11.987305 171.764671,12.6246664 C169.369857,13.8867184 167.406902,15.809482 166.11976,18.1539996 C165.449155,19.2361893 165.081165,20.4718684 165.052695,21.7371106 C165.03728,22.537073 165.239605,23.3266536 165.638922,24.0248884 C166.207169,24.8536658 166.97074,25.5366344 167.865269,26.0162217 C170.216766,27.2084438 172.983234,24.9593328 174.056886,23.9991106 C175.618926,22.6220876 176.872592,20.9435125 177.738922,19.0691107 C180.228743,18.4246663 182.685629,16.0079996 183.489222,15.1508886 C183.634132,15.2475552 183.779042,15.3442219 183.950299,15.4344441 L185.438922,16.2077774 C184.787452,16.9230044 184.186654,17.680915 183.640719,18.4762218 C182.685629,19.8037773 180.314371,22.9035551 181.849102,24.9206661 C182.183722,25.4238253 182.65936,25.8220632 183.219162,26.0677772 C185.247904,26.8539994 187.533533,24.9077772 191.083832,21.2602218 C191.641517,20.6802218 192.181637,20.1066662 192.704192,19.5395551 C192.484294,19.9590329 192.286431,20.3892226 192.111377,20.828444 C191.281437,22.9422217 191.762275,24.8433328 193.494611,25.9839994 C194.528743,26.6284439 195.865868,26.3448883 197.387425,25.339555 C200.410778,23.4062217 204.87006,19.0046663 207.689222,16.0788885 C207.590419,16.4848885 207.491617,16.9166663 207.405988,17.4128885 C206.747305,21.0733329 204.461677,25.7906661 203.565868,24.5791106 C203.510469,24.1358965 203.330319,23.7164515 203.045509,23.367555 C202.711548,22.9896603 202.135048,22.9304364 201.728144,23.2322217 C201.069461,23.6382217 201.398802,25.165555 203.381437,26.1708883 C203.764575,26.3665363 204.178817,26.4972745 204.606587,26.557555 C205.686826,26.7379994 207.860479,26.7508883 210.435928,24.875555 C212.411976,23.4319995 214.388024,21.6533329 215.830539,20.364444 C215.851038,19.7594661 215.950651,19.1595482 216.126946,18.5793329" id="Shape" fill="#FDB913"></path>
        </g>
    </g>
</svg>